<svg width="13" height="4" viewBox="0 0 13 4" fill="none" xmlns="http://www.w3.org/2000/svg">
<path d="M3.16667 1.92513C3.16667 2.66151 2.56971 3.25846 1.83333 3.25846C1.09695 3.25846 0.5 2.66151 0.5 1.92513C0.5 1.18875 1.09695 0.591797 1.83333 0.591797C2.56971 0.591797 3.16667 1.18875 3.16667 1.92513Z" fill="black"/>
<path d="M7.83333 1.92513C7.83333 2.66151 7.23638 3.25846 6.5 3.25846C5.76362 3.25846 5.16667 2.66151 5.16667 1.92513C5.16667 1.18875 5.76362 0.591797 6.5 0.591797C7.23638 0.591797 7.83333 1.18875 7.83333 1.92513Z" fill="black"/>
<path d="M12.5 1.92513C12.5 2.66151 11.903 3.25846 11.1667 3.25846C10.4303 3.25846 9.83333 2.66151 9.83333 1.92513C9.83333 1.18875 10.4303 0.591797 11.1667 0.591797C11.903 0.591797 12.5 1.18875 12.5 1.92513Z" fill="black"/>
</svg>
